<?xml version="1.0" encoding="UTF-8" standalone="no"?>
<!DOCTYPE svg PUBLIC "-//W3C//DTD SVG 1.1//EN"
 "http://www.w3.org/Graphics/SVG/1.1/DTD/svg11.dtd">
<!-- Generated by graphviz version 2.38.0 (20140413.2041)
 -->
<!-- Title: G Pages: 1 -->
<svg width="266pt" height="218pt"
 viewBox="0.00 0.00 265.89 218.00" xmlns="http://www.w3.org/2000/svg" xmlns:xlink="http://www.w3.org/1999/xlink">
<g id="graph0" class="graph" transform="scale(1 1) rotate(0) translate(4 214)">
<title>G</title>
<polygon fill="white" stroke="none" points="-4,4 -4,-214 261.894,-214 261.894,4 -4,4"/>
<!-- 3 -->
<g id="node1" class="node"><title>3</title>
<ellipse fill="none" stroke="black" cx="41.4469" cy="-105" rx="34.394" ry="18"/>
<text text-anchor="middle" x="41.4469" y="-101.3" font-family="Times New Roman,serif" font-size="14.00">3 (SE)</text>
</g>
<!-- 1 -->
<g id="node2" class="node"><title>1</title>
<ellipse fill="none" stroke="black" cx="129.447" cy="-18" rx="36.2938" ry="18"/>
<text text-anchor="middle" x="129.447" y="-14.3" font-family="Times New Roman,serif" font-size="14.00">1 (QA)</text>
</g>
<!-- 3&#45;&gt;1 -->
<g id="edge1" class="edge"><title>3&#45;&gt;1</title>
<path fill="none" stroke="black" d="M57.1796,-88.8037C70.8598,-75.5898 90.8622,-56.2693 106.357,-41.3029"/>
<polygon fill="black" stroke="black" points="108.793,-43.8162 113.554,-34.3513 103.93,-38.7813 108.793,-43.8162"/>
<text text-anchor="middle" x="105.447" y="-57.8" font-family="Times New Roman,serif" font-size="14.00">1885</text>
</g>
<!-- 2 -->
<g id="node7" class="node"><title>2</title>
<ellipse fill="none" stroke="black" cx="34.4469" cy="-18" rx="34.394" ry="18"/>
<text text-anchor="middle" x="34.4469" y="-14.3" font-family="Times New Roman,serif" font-size="14.00">2 (SE)</text>
</g>
<!-- 3&#45;&gt;2 -->
<g id="edge5" class="edge"><title>3&#45;&gt;2</title>
<path fill="none" stroke="black" d="M38.0025,-86.9787C36.9916,-81.2866 36.0077,-74.8918 35.4469,-69 34.7506,-61.683 34.4054,-53.7375 34.2553,-46.3794"/>
<polygon fill="black" stroke="black" points="37.7531,-46.1266 34.1568,-36.1608 30.7535,-46.1941 37.7531,-46.1266"/>
<text text-anchor="middle" x="49.4469" y="-57.8" font-family="Times New Roman,serif" font-size="14.00">7095</text>
</g>
<!-- 7 -->
<g id="node3" class="node"><title>7</title>
<ellipse fill="none" stroke="black" cx="136.447" cy="-105" rx="34.394" ry="18"/>
<text text-anchor="middle" x="136.447" y="-101.3" font-family="Times New Roman,serif" font-size="14.00">7 (SE)</text>
</g>
<!-- 7&#45;&gt;1 -->
<g id="edge2" class="edge"><title>7&#45;&gt;1</title>
<path fill="none" stroke="black" d="M135.03,-86.799C134.072,-75.1626 132.786,-59.5479 131.69,-46.2368"/>
<polygon fill="black" stroke="black" points="135.17,-45.8544 130.861,-36.1754 128.194,-46.429 135.17,-45.8544"/>
<text text-anchor="middle" x="147.447" y="-57.8" font-family="Times New Roman,serif" font-size="14.00">6743</text>
</g>
<!-- 4 -->
<g id="node4" class="node"><title>4</title>
<ellipse fill="none" stroke="black" cx="136.447" cy="-192" rx="34.394" ry="18"/>
<text text-anchor="middle" x="136.447" y="-188.3" font-family="Times New Roman,serif" font-size="14.00">4 (SE)</text>
</g>
<!-- 4&#45;&gt;7 -->
<g id="edge3" class="edge"><title>4&#45;&gt;7</title>
<path fill="none" stroke="black" d="M136.447,-173.799C136.447,-162.163 136.447,-146.548 136.447,-133.237"/>
<polygon fill="black" stroke="black" points="139.947,-133.175 136.447,-123.175 132.947,-133.175 139.947,-133.175"/>
<text text-anchor="middle" x="146.947" y="-144.8" font-family="Times New Roman,serif" font-size="14.00">353</text>
</g>
<!-- 5 -->
<g id="node5" class="node"><title>5</title>
<ellipse fill="none" stroke="black" cx="223.447" cy="-192" rx="34.394" ry="18"/>
<text text-anchor="middle" x="223.447" y="-188.3" font-family="Times New Roman,serif" font-size="14.00">5 (SE)</text>
</g>
<!-- 8 -->
<g id="node6" class="node"><title>8</title>
<ellipse fill="none" stroke="black" cx="223.447" cy="-105" rx="34.394" ry="18"/>
<text text-anchor="middle" x="223.447" y="-101.3" font-family="Times New Roman,serif" font-size="14.00">8 (SE)</text>
</g>
<!-- 5&#45;&gt;8 -->
<g id="edge4" class="edge"><title>5&#45;&gt;8</title>
<path fill="none" stroke="black" d="M223.447,-173.799C223.447,-162.163 223.447,-146.548 223.447,-133.237"/>
<polygon fill="black" stroke="black" points="226.947,-133.175 223.447,-123.175 219.947,-133.175 226.947,-133.175"/>
<text text-anchor="middle" x="237.447" y="-144.8" font-family="Times New Roman,serif" font-size="14.00">8588</text>
</g>
</g>
</svg>
